<mxfile host="Electron" agent="Mozilla/5.0 (Windows NT 10.0; Win64; x64) AppleWebKit/537.36 (KHTML, like Gecko) draw.io/26.0.16 Chrome/132.0.6834.196 Electron/34.2.0 Safari/537.36" version="26.0.16" pages="2">
  <diagram name="Sequential search" id="GPRWNofgy8FLtJxIam--">
    <mxGraphModel dx="864" dy="626" grid="1" gridSize="10" guides="1" tooltips="1" connect="1" arrows="1" fold="1" page="1" pageScale="1" pageWidth="827" pageHeight="1169" math="0" shadow="0">
      <root>
        <mxCell id="FcQ-IKqGeZoEcgifagWt-0" />
        <mxCell id="FcQ-IKqGeZoEcgifagWt-1" parent="FcQ-IKqGeZoEcgifagWt-0" />
        <mxCell id="FcQ-IKqGeZoEcgifagWt-2" value="Begin" style="strokeWidth=2;html=1;shape=mxgraph.flowchart.terminator;whiteSpace=wrap;fontSize=18;fontFamily=consolas;strokeColor=#4D4D4D;fontColor=#4D4D4D;fillColor=none;" parent="FcQ-IKqGeZoEcgifagWt-1" vertex="1">
          <mxGeometry x="259" y="300" width="80" height="40" as="geometry" />
        </mxCell>
        <mxCell id="FcQ-IKqGeZoEcgifagWt-4" value="i = 0" style="rounded=1;whiteSpace=wrap;html=1;absoluteArcSize=1;arcSize=14;strokeWidth=2;fontFamily=consolas;fontSize=18;strokeColor=#0099CC;fontColor=#0099CC;fillColor=none;" parent="FcQ-IKqGeZoEcgifagWt-1" vertex="1">
          <mxGeometry x="240" y="460" width="118" height="40" as="geometry" />
        </mxCell>
        <mxCell id="FcQ-IKqGeZoEcgifagWt-5" value="" style="endArrow=classic;html=1;fontFamily=consolas;fontSize=20;strokeWidth=3;fillColor=#a20025;strokeColor=#4D4D4D;exitX=0.5;exitY=1;exitDx=0;exitDy=0;exitPerimeter=0;entryX=0.5;entryY=0;entryDx=0;entryDy=0;fontColor=#4D4D4D;" parent="FcQ-IKqGeZoEcgifagWt-1" source="FcQ-IKqGeZoEcgifagWt-2" target="5zfKcHojwFzQb-mzM9M2-0" edge="1">
          <mxGeometry width="50" height="50" relative="1" as="geometry">
            <mxPoint x="519" y="560" as="sourcePoint" />
            <mxPoint x="289" y="260" as="targetPoint" />
          </mxGeometry>
        </mxCell>
        <mxCell id="FcQ-IKqGeZoEcgifagWt-6" value="" style="endArrow=classic;html=1;fontFamily=consolas;fontSize=20;strokeWidth=3;fillColor=#a20025;strokeColor=#4D4D4D;exitX=0.5;exitY=1;exitDx=0;exitDy=0;entryX=0.5;entryY=0;entryDx=0;entryDy=0;fontColor=#4D4D4D;" parent="FcQ-IKqGeZoEcgifagWt-1" source="5zfKcHojwFzQb-mzM9M2-0" target="FcQ-IKqGeZoEcgifagWt-4" edge="1">
          <mxGeometry width="50" height="50" relative="1" as="geometry">
            <mxPoint x="299" y="380" as="sourcePoint" />
            <mxPoint x="509" y="430" as="targetPoint" />
          </mxGeometry>
        </mxCell>
        <mxCell id="FcQ-IKqGeZoEcgifagWt-7" value="True" style="endArrow=classic;html=1;fontFamily=consolas;fontSize=18;strokeWidth=3;fillColor=#a20025;strokeColor=#FF748C;exitX=1;exitY=0.5;exitDx=0;exitDy=0;exitPerimeter=0;entryX=0;entryY=0.5;entryDx=0;entryDy=0;fontColor=#FF748C;labelBackgroundColor=none;" parent="FcQ-IKqGeZoEcgifagWt-1" source="FcQ-IKqGeZoEcgifagWt-17" target="FcQ-IKqGeZoEcgifagWt-25" edge="1">
          <mxGeometry x="-0.7015" y="20" width="50" height="50" relative="1" as="geometry">
            <mxPoint x="789" y="490" as="sourcePoint" />
            <mxPoint x="299" y="770" as="targetPoint" />
            <mxPoint as="offset" />
          </mxGeometry>
        </mxCell>
        <mxCell id="FcQ-IKqGeZoEcgifagWt-9" value="i &amp;lt; n" style="strokeWidth=2;html=1;shape=mxgraph.flowchart.decision;whiteSpace=wrap;fontFamily=consolas;fontSize=18;strokeColor=#0099CC;fontColor=#0099CC;fillColor=none;" parent="FcQ-IKqGeZoEcgifagWt-1" vertex="1">
          <mxGeometry x="220" y="537" width="158" height="63" as="geometry" />
        </mxCell>
        <mxCell id="FcQ-IKqGeZoEcgifagWt-10" value="" style="endArrow=classic;html=1;fontFamily=consolas;fontSize=20;strokeWidth=3;fillColor=#a20025;strokeColor=#0099CC;exitX=0.5;exitY=1;exitDx=0;exitDy=0;entryX=0.5;entryY=0;entryDx=0;entryDy=0;entryPerimeter=0;fontColor=#0099CC;" parent="FcQ-IKqGeZoEcgifagWt-1" source="FcQ-IKqGeZoEcgifagWt-4" target="FcQ-IKqGeZoEcgifagWt-9" edge="1">
          <mxGeometry width="50" height="50" relative="1" as="geometry">
            <mxPoint x="298.5" y="605" as="sourcePoint" />
            <mxPoint x="298.5" y="665" as="targetPoint" />
          </mxGeometry>
        </mxCell>
        <mxCell id="FcQ-IKqGeZoEcgifagWt-13" value="End" style="strokeWidth=2;html=1;shape=mxgraph.flowchart.terminator;whiteSpace=wrap;fontSize=18;strokeColor=#4D4D4D;fontColor=#4D4D4D;fillColor=none;fontFamily=consolas;" parent="FcQ-IKqGeZoEcgifagWt-1" vertex="1">
          <mxGeometry x="640" y="650" width="80" height="40" as="geometry" />
        </mxCell>
        <mxCell id="FcQ-IKqGeZoEcgifagWt-15" value="i = i + 1" style="rounded=1;whiteSpace=wrap;html=1;absoluteArcSize=1;arcSize=14;strokeWidth=2;fontFamily=consolas;fontSize=18;strokeColor=#0099CC;fontColor=#0099CC;fillColor=none;" parent="FcQ-IKqGeZoEcgifagWt-1" vertex="1">
          <mxGeometry x="50" y="570" width="128" height="42" as="geometry" />
        </mxCell>
        <mxCell id="FcQ-IKqGeZoEcgifagWt-16" value="" style="endArrow=classic;html=1;fontFamily=consolas;fontSize=20;strokeWidth=3;fillColor=#a20025;strokeColor=#0099CC;exitX=0.5;exitY=0;exitDx=0;exitDy=0;" parent="FcQ-IKqGeZoEcgifagWt-1" source="FcQ-IKqGeZoEcgifagWt-15" edge="1">
          <mxGeometry width="50" height="50" relative="1" as="geometry">
            <mxPoint x="84" y="530" as="sourcePoint" />
            <mxPoint x="299" y="510" as="targetPoint" />
            <Array as="points">
              <mxPoint x="114" y="510" />
            </Array>
          </mxGeometry>
        </mxCell>
        <mxCell id="FcQ-IKqGeZoEcgifagWt-17" value="A[i] == k" style="strokeWidth=2;html=1;shape=mxgraph.flowchart.decision;whiteSpace=wrap;fontFamily=consolas;fontSize=18;strokeColor=#FF748C;fontColor=#FF748C;fillColor=none;" parent="FcQ-IKqGeZoEcgifagWt-1" vertex="1">
          <mxGeometry x="220" y="640" width="158" height="60" as="geometry" />
        </mxCell>
        <mxCell id="FcQ-IKqGeZoEcgifagWt-18" value="" style="endArrow=classic;html=1;fontFamily=consolas;fontSize=20;strokeWidth=3;fillColor=#a20025;strokeColor=#0099CC;exitX=0.5;exitY=1;exitDx=0;exitDy=0;entryX=0.5;entryY=0;entryDx=0;entryDy=0;entryPerimeter=0;exitPerimeter=0;fontColor=#0099CC;" parent="FcQ-IKqGeZoEcgifagWt-1" source="FcQ-IKqGeZoEcgifagWt-9" target="FcQ-IKqGeZoEcgifagWt-17" edge="1">
          <mxGeometry width="50" height="50" relative="1" as="geometry">
            <mxPoint x="309" y="490" as="sourcePoint" />
            <mxPoint x="309" y="545" as="targetPoint" />
          </mxGeometry>
        </mxCell>
        <mxCell id="FcQ-IKqGeZoEcgifagWt-19" value="True" style="edgeLabel;html=1;align=center;verticalAlign=middle;resizable=0;points=[];fontFamily=consolas;fontSize=18;fontColor=#0099CC;labelBackgroundColor=none;" parent="FcQ-IKqGeZoEcgifagWt-1" vertex="1" connectable="0">
          <mxGeometry x="328.99990606410006" y="620.0017532594911" as="geometry">
            <mxPoint x="2" y="-9" as="offset" />
          </mxGeometry>
        </mxCell>
        <mxCell id="FcQ-IKqGeZoEcgifagWt-20" value="False" style="endArrow=classic;html=1;fontFamily=consolas;fontSize=18;strokeWidth=3;fillColor=#a20025;strokeColor=#0099CC;exitX=1;exitY=0.5;exitDx=0;exitDy=0;exitPerimeter=0;entryX=0;entryY=0.5;entryDx=0;entryDy=0;fontColor=#0099CC;labelBackgroundColor=none;" parent="FcQ-IKqGeZoEcgifagWt-1" source="FcQ-IKqGeZoEcgifagWt-9" target="dh802dqac77_ImnmBCvQ-0" edge="1">
          <mxGeometry x="-0.7015" y="18" width="50" height="50" relative="1" as="geometry">
            <mxPoint x="309" y="605" as="sourcePoint" />
            <mxPoint x="437.4000000000001" y="568.5" as="targetPoint" />
            <Array as="points" />
            <mxPoint as="offset" />
          </mxGeometry>
        </mxCell>
        <mxCell id="FcQ-IKqGeZoEcgifagWt-23" value="False" style="endArrow=classic;html=1;fontFamily=consolas;fontSize=18;strokeWidth=3;fillColor=#a20025;strokeColor=#0099CC;exitX=0;exitY=0.5;exitDx=0;exitDy=0;exitPerimeter=0;entryX=0.5;entryY=1;entryDx=0;entryDy=0;fontColor=#0099CC;labelBackgroundColor=none;" parent="FcQ-IKqGeZoEcgifagWt-1" source="FcQ-IKqGeZoEcgifagWt-17" target="FcQ-IKqGeZoEcgifagWt-15" edge="1">
          <mxGeometry x="-0.7701" y="20" width="50" height="50" relative="1" as="geometry">
            <mxPoint x="203" y="680" as="sourcePoint" />
            <mxPoint x="83" y="680" as="targetPoint" />
            <Array as="points">
              <mxPoint x="114" y="670" />
            </Array>
            <mxPoint as="offset" />
          </mxGeometry>
        </mxCell>
        <mxCell id="FcQ-IKqGeZoEcgifagWt-25" value="Output: i" style="shape=parallelogram;html=1;strokeWidth=2;perimeter=parallelogramPerimeter;whiteSpace=wrap;rounded=1;arcSize=12;size=0.046875;fontSize=18;fontFamily=consolas;strokeColor=#4D4D4D;fontColor=#4D4D4D;fillColor=none;" parent="FcQ-IKqGeZoEcgifagWt-1" vertex="1">
          <mxGeometry x="440" y="650" width="140" height="40" as="geometry" />
        </mxCell>
        <mxCell id="FcQ-IKqGeZoEcgifagWt-26" value="" style="endArrow=classic;html=1;fontFamily=consolas;fontSize=20;strokeWidth=3;fillColor=#a20025;strokeColor=#4D4D4D;exitX=1;exitY=0.5;exitDx=0;exitDy=0;fontColor=#4D4D4D;entryX=0;entryY=0.5;entryDx=0;entryDy=0;entryPerimeter=0;" parent="FcQ-IKqGeZoEcgifagWt-1" source="FcQ-IKqGeZoEcgifagWt-25" edge="1" target="FcQ-IKqGeZoEcgifagWt-13">
          <mxGeometry width="50" height="50" relative="1" as="geometry">
            <mxPoint x="629" y="680" as="sourcePoint" />
            <mxPoint x="699" y="680" as="targetPoint" />
          </mxGeometry>
        </mxCell>
        <mxCell id="5zfKcHojwFzQb-mzM9M2-0" value="Input: A, k&lt;i&gt;&lt;br&gt;&lt;/i&gt;" style="shape=parallelogram;html=1;strokeWidth=2;perimeter=parallelogramPerimeter;whiteSpace=wrap;rounded=1;arcSize=12;size=0.06338028169014084;fontSize=18;fontFamily=consolas;strokeColor=#4D4D4D;fillColor=none;gradientColor=#ffd966;fontColor=#4D4D4D;" parent="FcQ-IKqGeZoEcgifagWt-1" vertex="1">
          <mxGeometry x="228" y="380" width="142" height="40" as="geometry" />
        </mxCell>
        <mxCell id="dh802dqac77_ImnmBCvQ-0" value="Output: -1" style="shape=parallelogram;html=1;strokeWidth=2;perimeter=parallelogramPerimeter;whiteSpace=wrap;rounded=1;arcSize=12;size=0.046875;fontSize=18;fontFamily=consolas;strokeColor=#4D4D4D;fontColor=#4D4D4D;fillColor=none;" parent="FcQ-IKqGeZoEcgifagWt-1" vertex="1">
          <mxGeometry x="440" y="548.5" width="140" height="40" as="geometry" />
        </mxCell>
        <mxCell id="dh802dqac77_ImnmBCvQ-1" value="" style="endArrow=classic;html=1;fontFamily=consolas;fontSize=20;strokeWidth=3;fillColor=#a20025;strokeColor=#4D4D4D;exitX=1;exitY=0.5;exitDx=0;exitDy=0;fontColor=#4D4D4D;entryX=0.5;entryY=0;entryDx=0;entryDy=0;entryPerimeter=0;" parent="FcQ-IKqGeZoEcgifagWt-1" source="dh802dqac77_ImnmBCvQ-0" target="FcQ-IKqGeZoEcgifagWt-13" edge="1">
          <mxGeometry width="50" height="50" relative="1" as="geometry">
            <mxPoint x="389" y="578.5" as="sourcePoint" />
            <mxPoint x="730" y="660" as="targetPoint" />
            <Array as="points">
              <mxPoint x="681" y="570" />
            </Array>
          </mxGeometry>
        </mxCell>
      </root>
    </mxGraphModel>
  </diagram>
  <diagram name="Binary search" id="YCQVdB1SrxnCD-XDPt9D">
    <mxGraphModel dx="2806" dy="834" grid="1" gridSize="10" guides="1" tooltips="1" connect="1" arrows="1" fold="1" page="1" pageScale="1" pageWidth="827" pageHeight="1169" math="0" shadow="0">
      <root>
        <mxCell id="HADdj52Uf5GiFGu9Oyp5-0" />
        <mxCell id="HADdj52Uf5GiFGu9Oyp5-1" parent="HADdj52Uf5GiFGu9Oyp5-0" />
        <mxCell id="HADdj52Uf5GiFGu9Oyp5-2" value="Begin" style="strokeWidth=2;html=1;shape=mxgraph.flowchart.terminator;whiteSpace=wrap;fontSize=18;fontFamily=consolas;strokeColor=#4D4D4D;fontColor=#4D4D4D;fillColor=none;" parent="HADdj52Uf5GiFGu9Oyp5-1" vertex="1">
          <mxGeometry x="200" y="353.75" width="80" height="40" as="geometry" />
        </mxCell>
        <mxCell id="HADdj52Uf5GiFGu9Oyp5-3" value="Input: A, k&lt;i&gt;&lt;br&gt;&lt;/i&gt;" style="shape=parallelogram;html=1;strokeWidth=2;perimeter=parallelogramPerimeter;whiteSpace=wrap;rounded=1;arcSize=12;size=0.037500000000000006;fontSize=18;fontFamily=consolas;strokeColor=#4D4D4D;fillColor=none;gradientColor=#ffd966;fontColor=#4D4D4D;" parent="HADdj52Uf5GiFGu9Oyp5-1" vertex="1">
          <mxGeometry x="170" y="429.5" width="140" height="40" as="geometry" />
        </mxCell>
        <mxCell id="HADdj52Uf5GiFGu9Oyp5-4" value="left = 0&lt;br&gt;right = n - 1" style="rounded=1;whiteSpace=wrap;html=1;absoluteArcSize=1;arcSize=14;strokeWidth=2;fontFamily=consolas;fontSize=18;strokeColor=#0099CC;fontColor=#0099CC;fillColor=none;align=left;spacingLeft=12;" parent="HADdj52Uf5GiFGu9Oyp5-1" vertex="1">
          <mxGeometry x="140" y="510" width="200" height="62.5" as="geometry" />
        </mxCell>
        <mxCell id="HADdj52Uf5GiFGu9Oyp5-5" value="" style="endArrow=classic;html=1;fontFamily=Roboto;fontSource=https%3A%2F%2Ffonts.google.com%2Fspecimen%2FRoboto;fontSize=20;strokeWidth=3;fillColor=#a20025;strokeColor=#4D4D4D;exitX=0.5;exitY=1;exitDx=0;exitDy=0;exitPerimeter=0;entryX=0.5;entryY=0;entryDx=0;entryDy=0;fontColor=#4D4D4D;" parent="HADdj52Uf5GiFGu9Oyp5-1" source="HADdj52Uf5GiFGu9Oyp5-2" target="HADdj52Uf5GiFGu9Oyp5-3" edge="1">
          <mxGeometry width="50" height="50" relative="1" as="geometry">
            <mxPoint x="460" y="580" as="sourcePoint" />
            <mxPoint x="230" y="280" as="targetPoint" />
          </mxGeometry>
        </mxCell>
        <mxCell id="HADdj52Uf5GiFGu9Oyp5-6" value="" style="endArrow=classic;html=1;fontFamily=Roboto;fontSource=https%3A%2F%2Ffonts.google.com%2Fspecimen%2FRoboto;fontSize=20;strokeWidth=3;fillColor=#a20025;strokeColor=#4D4D4D;exitX=0.5;exitY=1;exitDx=0;exitDy=0;entryX=0.5;entryY=0;entryDx=0;entryDy=0;fontColor=#4D4D4D;" parent="HADdj52Uf5GiFGu9Oyp5-1" source="HADdj52Uf5GiFGu9Oyp5-3" target="HADdj52Uf5GiFGu9Oyp5-4" edge="1">
          <mxGeometry width="50" height="50" relative="1" as="geometry">
            <mxPoint x="450" y="390" as="sourcePoint" />
            <mxPoint x="450" y="450" as="targetPoint" />
          </mxGeometry>
        </mxCell>
        <mxCell id="HADdj52Uf5GiFGu9Oyp5-11" value="End" style="strokeWidth=2;html=1;shape=mxgraph.flowchart.terminator;whiteSpace=wrap;fontSize=18;strokeColor=#4D4D4D;fontColor=#4D4D4D;fillColor=none;fontFamily=consolas;" parent="HADdj52Uf5GiFGu9Oyp5-1" vertex="1">
          <mxGeometry x="610" y="800" width="80" height="40" as="geometry" />
        </mxCell>
        <mxCell id="HADdj52Uf5GiFGu9Oyp5-13" value="" style="endArrow=classic;html=1;fontFamily=Roboto;fontSource=https%3A%2F%2Ffonts.google.com%2Fspecimen%2FRoboto;fontSize=20;strokeWidth=3;fillColor=#a20025;strokeColor=#0099CC;" parent="HADdj52Uf5GiFGu9Oyp5-1" source="oqHRHDzHuFoXBvJFYXXt-8" edge="1">
          <mxGeometry width="50" height="50" relative="1" as="geometry">
            <mxPoint x="-85" y="810" as="sourcePoint" />
            <mxPoint x="240" y="590" as="targetPoint" />
            <Array as="points">
              <mxPoint x="-10" y="590" />
            </Array>
          </mxGeometry>
        </mxCell>
        <mxCell id="HADdj52Uf5GiFGu9Oyp5-14" value="left &amp;lt;= right" style="strokeWidth=2;html=1;shape=mxgraph.flowchart.decision;whiteSpace=wrap;fontFamily=consolas;fontSize=18;strokeColor=#0099CC;fontColor=#0099CC;fillColor=none;" parent="HADdj52Uf5GiFGu9Oyp5-1" vertex="1">
          <mxGeometry x="140" y="610" width="200" height="60" as="geometry" />
        </mxCell>
        <mxCell id="HADdj52Uf5GiFGu9Oyp5-15" value="" style="endArrow=classic;html=1;fontFamily=Roboto;fontSource=https%3A%2F%2Ffonts.google.com%2Fspecimen%2FRoboto;fontSize=20;strokeWidth=3;fillColor=#a20025;strokeColor=#0099CC;entryX=0.5;entryY=0;entryDx=0;entryDy=0;entryPerimeter=0;exitX=0.5;exitY=1;exitDx=0;exitDy=0;" parent="HADdj52Uf5GiFGu9Oyp5-1" source="HADdj52Uf5GiFGu9Oyp5-23" target="oqHRHDzHuFoXBvJFYXXt-0" edge="1">
          <mxGeometry width="50" height="50" relative="1" as="geometry">
            <mxPoint x="240" y="630" as="sourcePoint" />
            <mxPoint x="250" y="675" as="targetPoint" />
          </mxGeometry>
        </mxCell>
        <mxCell id="HADdj52Uf5GiFGu9Oyp5-17" value="" style="endArrow=classic;html=1;fontFamily=Roboto;fontSource=https%3A%2F%2Ffonts.google.com%2Fspecimen%2FRoboto;fontSize=20;strokeWidth=3;fillColor=#a20025;strokeColor=#0099CC;exitX=0;exitY=0.5;exitDx=0;exitDy=0;entryX=0.5;entryY=1;entryDx=0;entryDy=0;" parent="HADdj52Uf5GiFGu9Oyp5-1" source="oqHRHDzHuFoXBvJFYXXt-7" target="oqHRHDzHuFoXBvJFYXXt-8" edge="1">
          <mxGeometry width="50" height="50" relative="1" as="geometry">
            <mxPoint x="250" y="725" as="sourcePoint" />
            <mxPoint x="378.4000000000001" y="688.5" as="targetPoint" />
            <Array as="points">
              <mxPoint x="-10" y="1010" />
            </Array>
          </mxGeometry>
        </mxCell>
        <mxCell id="HADdj52Uf5GiFGu9Oyp5-22" value="" style="endArrow=classic;html=1;fontFamily=Roboto;fontSource=https%3A%2F%2Ffonts.google.com%2Fspecimen%2FRoboto;fontSize=20;strokeWidth=3;fillColor=#a20025;strokeColor=#4D4D4D;exitX=1;exitY=0.5;exitDx=0;exitDy=0;entryX=0;entryY=0.5;entryDx=0;entryDy=0;entryPerimeter=0;fontColor=#4D4D4D;" parent="HADdj52Uf5GiFGu9Oyp5-1" source="oqHRHDzHuFoXBvJFYXXt-6" target="HADdj52Uf5GiFGu9Oyp5-11" edge="1">
          <mxGeometry width="50" height="50" relative="1" as="geometry">
            <mxPoint x="543" y="809" as="sourcePoint" />
            <mxPoint x="633" y="859" as="targetPoint" />
          </mxGeometry>
        </mxCell>
        <mxCell id="HADdj52Uf5GiFGu9Oyp5-23" value="mid = (left + right) / 2" style="rounded=1;whiteSpace=wrap;html=1;absoluteArcSize=1;arcSize=14;strokeWidth=2;fontFamily=consolas;fontSize=18;strokeColor=#0099CC;fontColor=#0099CC;fillColor=none;" parent="HADdj52Uf5GiFGu9Oyp5-1" vertex="1">
          <mxGeometry x="100" y="710" width="280" height="40" as="geometry" />
        </mxCell>
        <mxCell id="HADdj52Uf5GiFGu9Oyp5-24" value="" style="endArrow=classic;html=1;fontFamily=Roboto;fontSource=https%3A%2F%2Ffonts.google.com%2Fspecimen%2FRoboto;fontSize=20;strokeWidth=3;fillColor=#a20025;strokeColor=#0099CC;entryX=0.5;entryY=0;entryDx=0;entryDy=0;entryPerimeter=0;" parent="HADdj52Uf5GiFGu9Oyp5-1" source="HADdj52Uf5GiFGu9Oyp5-4" target="HADdj52Uf5GiFGu9Oyp5-14" edge="1">
          <mxGeometry width="50" height="50" relative="1" as="geometry">
            <mxPoint x="510" y="530" as="sourcePoint" />
            <mxPoint x="770" y="454.5" as="targetPoint" />
          </mxGeometry>
        </mxCell>
        <mxCell id="HADdj52Uf5GiFGu9Oyp5-26" value="" style="endArrow=classic;html=1;fontFamily=Roboto;fontSource=https%3A%2F%2Ffonts.google.com%2Fspecimen%2FRoboto;fontSize=20;strokeWidth=3;fillColor=#a20025;strokeColor=#0099CC;exitX=0.5;exitY=1;exitDx=0;exitDy=0;exitPerimeter=0;entryX=0.5;entryY=0;entryDx=0;entryDy=0;" parent="HADdj52Uf5GiFGu9Oyp5-1" source="HADdj52Uf5GiFGu9Oyp5-14" target="HADdj52Uf5GiFGu9Oyp5-23" edge="1">
          <mxGeometry width="50" height="50" relative="1" as="geometry">
            <mxPoint x="240" y="1010" as="sourcePoint" />
            <mxPoint x="240" y="950" as="targetPoint" />
          </mxGeometry>
        </mxCell>
        <mxCell id="HADdj52Uf5GiFGu9Oyp5-27" value="True" style="edgeLabel;html=1;align=center;verticalAlign=middle;resizable=0;points=[];fontFamily=consolas;fontSize=18;fontColor=#0099CC;labelBackgroundColor=none;" parent="HADdj52Uf5GiFGu9Oyp5-26" vertex="1" connectable="0">
          <mxGeometry x="-0.4381" y="-2" relative="1" as="geometry">
            <mxPoint x="32" y="6" as="offset" />
          </mxGeometry>
        </mxCell>
        <mxCell id="HADdj52Uf5GiFGu9Oyp5-30" value="A[mid] &amp;lt; k" style="strokeWidth=2;html=1;shape=mxgraph.flowchart.decision;whiteSpace=wrap;fontFamily=consolas;fontSize=18;strokeColor=#0099CC;fontColor=#0099CC;fillColor=none;" parent="HADdj52Uf5GiFGu9Oyp5-1" vertex="1">
          <mxGeometry x="150" y="890" width="180" height="60" as="geometry" />
        </mxCell>
        <mxCell id="HADdj52Uf5GiFGu9Oyp5-32" value="True" style="endArrow=classic;html=1;fontFamily=consolas;fontSize=18;strokeWidth=3;fillColor=#a20025;strokeColor=#0099CC;exitX=0.5;exitY=1;exitDx=0;exitDy=0;exitPerimeter=0;entryX=0.5;entryY=0;entryDx=0;entryDy=0;fontColor=#0099CC;labelBackgroundColor=none;" parent="HADdj52Uf5GiFGu9Oyp5-1" source="HADdj52Uf5GiFGu9Oyp5-30" target="oqHRHDzHuFoXBvJFYXXt-7" edge="1">
          <mxGeometry x="-0.6" y="30" width="50" height="50" relative="1" as="geometry">
            <mxPoint x="205.8" y="1190" as="sourcePoint" />
            <mxPoint x="240" y="1070" as="targetPoint" />
            <mxPoint as="offset" />
          </mxGeometry>
        </mxCell>
        <mxCell id="oqHRHDzHuFoXBvJFYXXt-0" value="A[mid] == k" style="strokeWidth=2;html=1;shape=mxgraph.flowchart.decision;whiteSpace=wrap;fontFamily=consolas;fontSize=18;strokeColor=#FF748C;fontColor=#FF748C;fillColor=none;" parent="HADdj52Uf5GiFGu9Oyp5-1" vertex="1">
          <mxGeometry x="150" y="790" width="180" height="60" as="geometry" />
        </mxCell>
        <mxCell id="oqHRHDzHuFoXBvJFYXXt-2" value="False" style="endArrow=classic;html=1;fontFamily=consolas;fontSize=18;strokeWidth=3;fillColor=#a20025;strokeColor=#0099CC;exitX=0.5;exitY=1;exitDx=0;exitDy=0;exitPerimeter=0;entryX=0.5;entryY=0;entryDx=0;entryDy=0;entryPerimeter=0;fontColor=#0099CC;labelBackgroundColor=none;" parent="HADdj52Uf5GiFGu9Oyp5-1" source="oqHRHDzHuFoXBvJFYXXt-0" target="HADdj52Uf5GiFGu9Oyp5-30" edge="1">
          <mxGeometry x="-0.5" y="40" width="50" height="50" relative="1" as="geometry">
            <mxPoint x="394.5" y="850" as="sourcePoint" />
            <mxPoint x="474.5" y="850" as="targetPoint" />
            <mxPoint as="offset" />
          </mxGeometry>
        </mxCell>
        <mxCell id="oqHRHDzHuFoXBvJFYXXt-4" value="True" style="endArrow=classic;html=1;fontFamily=consolas;fontSize=18;strokeWidth=3;fillColor=#a20025;strokeColor=#FF748C;exitX=1;exitY=0.5;exitDx=0;exitDy=0;exitPerimeter=0;entryX=0;entryY=0.5;entryDx=0;entryDy=0;fontColor=#FF748C;labelBackgroundColor=none;" parent="HADdj52Uf5GiFGu9Oyp5-1" source="oqHRHDzHuFoXBvJFYXXt-0" target="oqHRHDzHuFoXBvJFYXXt-6" edge="1">
          <mxGeometry x="-0.0226" y="20" width="50" height="50" relative="1" as="geometry">
            <mxPoint x="390" y="750" as="sourcePoint" />
            <mxPoint x="460" y="860" as="targetPoint" />
            <mxPoint as="offset" />
          </mxGeometry>
        </mxCell>
        <mxCell id="oqHRHDzHuFoXBvJFYXXt-6" value="Output: &lt;span&gt;mid&lt;/span&gt;" style="shape=parallelogram;html=1;strokeWidth=2;perimeter=parallelogramPerimeter;whiteSpace=wrap;rounded=1;arcSize=12;size=0.027631578947366627;fontSize=18;fontFamily=consolas;strokeColor=#4D4D4D;fontColor=#4D4D4D;fillColor=none;fontStyle=0" parent="HADdj52Uf5GiFGu9Oyp5-1" vertex="1">
          <mxGeometry x="400" y="800" width="140" height="40" as="geometry" />
        </mxCell>
        <mxCell id="oqHRHDzHuFoXBvJFYXXt-7" value="left = mid + 1" style="rounded=1;whiteSpace=wrap;html=1;absoluteArcSize=1;arcSize=14;strokeWidth=2;fontFamily=consolas;fontSize=18;strokeColor=#0099CC;fontColor=#0099CC;fillColor=none;" parent="HADdj52Uf5GiFGu9Oyp5-1" vertex="1">
          <mxGeometry x="150" y="990" width="180" height="40" as="geometry" />
        </mxCell>
        <mxCell id="oqHRHDzHuFoXBvJFYXXt-8" value="right = mid - 1" style="rounded=1;whiteSpace=wrap;html=1;absoluteArcSize=1;arcSize=14;strokeWidth=2;fontFamily=consolas;fontSize=18;strokeColor=#0099CC;fontColor=#0099CC;fillColor=none;" parent="HADdj52Uf5GiFGu9Oyp5-1" vertex="1">
          <mxGeometry x="-100" y="901" width="180" height="38" as="geometry" />
        </mxCell>
        <mxCell id="oqHRHDzHuFoXBvJFYXXt-9" value="False" style="endArrow=classic;html=1;fontFamily=consolas;fontSize=18;strokeWidth=3;fillColor=#a20025;strokeColor=#0099CC;exitX=0;exitY=0.5;exitDx=0;exitDy=0;exitPerimeter=0;entryX=1;entryY=0.5;entryDx=0;entryDy=0;fontColor=#0099CC;labelBackgroundColor=none;" parent="HADdj52Uf5GiFGu9Oyp5-1" source="HADdj52Uf5GiFGu9Oyp5-30" target="oqHRHDzHuFoXBvJFYXXt-8" edge="1">
          <mxGeometry x="-0.4286" y="-20" width="50" height="50" relative="1" as="geometry">
            <mxPoint x="390" y="980" as="sourcePoint" />
            <mxPoint x="424.1999999999998" y="1060" as="targetPoint" />
            <mxPoint as="offset" />
          </mxGeometry>
        </mxCell>
        <mxCell id="oqHRHDzHuFoXBvJFYXXt-12" value="False" style="endArrow=classic;html=1;fontFamily=consolas;fontSize=18;strokeWidth=3;fillColor=#a20025;strokeColor=#0099CC;exitX=1;exitY=0.5;exitDx=0;exitDy=0;exitPerimeter=0;entryX=0;entryY=0.5;entryDx=0;entryDy=0;fontColor=#0099CC;labelBackgroundColor=none;" parent="HADdj52Uf5GiFGu9Oyp5-1" source="HADdj52Uf5GiFGu9Oyp5-14" target="iPWritq_YYHfg-mIPsiz-1" edge="1">
          <mxGeometry x="-0.4732" y="20" width="50" height="50" relative="1" as="geometry">
            <mxPoint x="390" y="870" as="sourcePoint" />
            <mxPoint x="468.4000000000001" y="870" as="targetPoint" />
            <Array as="points" />
            <mxPoint as="offset" />
          </mxGeometry>
        </mxCell>
        <mxCell id="iPWritq_YYHfg-mIPsiz-1" value="Output: &lt;span&gt;-1&lt;/span&gt;" style="shape=parallelogram;html=1;strokeWidth=2;perimeter=parallelogramPerimeter;whiteSpace=wrap;rounded=1;arcSize=12;size=0.027631578947366627;fontSize=18;fontFamily=consolas;strokeColor=#4D4D4D;fontColor=#4D4D4D;fillColor=none;fontStyle=0" parent="HADdj52Uf5GiFGu9Oyp5-1" vertex="1">
          <mxGeometry x="400" y="620" width="140" height="40" as="geometry" />
        </mxCell>
        <mxCell id="iPWritq_YYHfg-mIPsiz-2" value="" style="endArrow=classic;html=1;fontFamily=Roboto;fontSource=https%3A%2F%2Ffonts.google.com%2Fspecimen%2FRoboto;fontSize=20;strokeWidth=3;fillColor=#a20025;strokeColor=#4D4D4D;exitX=1;exitY=0.5;exitDx=0;exitDy=0;entryX=0.5;entryY=0;entryDx=0;entryDy=0;entryPerimeter=0;fontColor=#4D4D4D;" parent="HADdj52Uf5GiFGu9Oyp5-1" source="iPWritq_YYHfg-mIPsiz-1" target="HADdj52Uf5GiFGu9Oyp5-11" edge="1">
          <mxGeometry width="50" height="50" relative="1" as="geometry">
            <mxPoint x="591.1500000000001" y="849" as="sourcePoint" />
            <mxPoint x="663" y="849" as="targetPoint" />
            <Array as="points">
              <mxPoint x="650" y="640" />
            </Array>
          </mxGeometry>
        </mxCell>
        <mxCell id="-w7Hs3W0pHR4sVc9SzRk-0" value="0" style="rounded=1;whiteSpace=wrap;html=1;absoluteArcSize=1;arcSize=30;strokeWidth=2;fontFamily=consolas;fontSize=20;strokeColor=#99CCFF;fontColor=#FFFFFF;fillColor=#0099CC;" parent="HADdj52Uf5GiFGu9Oyp5-1" vertex="1">
          <mxGeometry x="-800.81" y="120" width="40" height="40" as="geometry" />
        </mxCell>
        <mxCell id="-w7Hs3W0pHR4sVc9SzRk-1" value="left = 0" style="rounded=1;whiteSpace=wrap;html=1;absoluteArcSize=1;arcSize=14;strokeWidth=2;fontFamily=consolas;fontSize=18;strokeColor=none;fontColor=#0099CC;fillColor=none;" parent="HADdj52Uf5GiFGu9Oyp5-1" vertex="1">
          <mxGeometry x="-847.91" y="87.5" width="87.1" height="27.5" as="geometry" />
        </mxCell>
        <mxCell id="-w7Hs3W0pHR4sVc9SzRk-2" value="1" style="rounded=1;whiteSpace=wrap;html=1;absoluteArcSize=1;arcSize=30;strokeWidth=1;fontFamily=consolas;fontSize=20;strokeColor=#0099CC;fontColor=#0099CC;fillColor=none;" parent="HADdj52Uf5GiFGu9Oyp5-1" vertex="1">
          <mxGeometry x="-760" y="120" width="40" height="40" as="geometry" />
        </mxCell>
        <mxCell id="-w7Hs3W0pHR4sVc9SzRk-3" value="2" style="rounded=1;whiteSpace=wrap;html=1;absoluteArcSize=1;arcSize=30;strokeWidth=1;fontFamily=consolas;fontSize=20;strokeColor=#0099CC;fontColor=#0099CC;fillColor=none;" parent="HADdj52Uf5GiFGu9Oyp5-1" vertex="1">
          <mxGeometry x="-720" y="120" width="40" height="40" as="geometry" />
        </mxCell>
        <mxCell id="-w7Hs3W0pHR4sVc9SzRk-4" value="4" style="rounded=1;whiteSpace=wrap;html=1;absoluteArcSize=1;arcSize=30;strokeWidth=1;fontFamily=consolas;fontSize=20;strokeColor=#0099CC;fontColor=#0099CC;fillColor=none;" parent="HADdj52Uf5GiFGu9Oyp5-1" vertex="1">
          <mxGeometry x="-680" y="120" width="40" height="40" as="geometry" />
        </mxCell>
        <mxCell id="-w7Hs3W0pHR4sVc9SzRk-5" value="4" style="rounded=1;whiteSpace=wrap;html=1;absoluteArcSize=1;arcSize=30;strokeWidth=1;fontFamily=consolas;fontSize=20;strokeColor=#0099CC;fontColor=#0099CC;fillColor=none;" parent="HADdj52Uf5GiFGu9Oyp5-1" vertex="1">
          <mxGeometry x="-640" y="120" width="40" height="40" as="geometry" />
        </mxCell>
        <mxCell id="-w7Hs3W0pHR4sVc9SzRk-6" value="4" style="rounded=1;whiteSpace=wrap;html=1;absoluteArcSize=1;arcSize=30;strokeWidth=2;fontFamily=consolas;fontSize=20;strokeColor=#99CCFF;fontColor=#FFFFFF;fillColor=#0099CC;" parent="HADdj52Uf5GiFGu9Oyp5-1" vertex="1">
          <mxGeometry x="-600.0000000000001" y="120" width="40" height="40" as="geometry" />
        </mxCell>
        <mxCell id="-w7Hs3W0pHR4sVc9SzRk-7" value="5" style="rounded=1;whiteSpace=wrap;html=1;absoluteArcSize=1;arcSize=30;strokeWidth=1;fontFamily=consolas;fontSize=20;strokeColor=#0099CC;fontColor=#0099CC;fillColor=none;" parent="HADdj52Uf5GiFGu9Oyp5-1" vertex="1">
          <mxGeometry x="-560.0000000000001" y="120" width="40" height="40" as="geometry" />
        </mxCell>
        <mxCell id="-w7Hs3W0pHR4sVc9SzRk-12" value="mid = 5" style="rounded=1;whiteSpace=wrap;html=1;absoluteArcSize=1;arcSize=14;strokeWidth=2;fontFamily=consolas;fontSize=18;strokeColor=none;fontColor=#0099CC;fillColor=none;" parent="HADdj52Uf5GiFGu9Oyp5-1" vertex="1">
          <mxGeometry x="-628.38" y="87.5" width="100" height="27.5" as="geometry" />
        </mxCell>
        <mxCell id="-w7Hs3W0pHR4sVc9SzRk-14" value="5" style="rounded=1;whiteSpace=wrap;html=1;absoluteArcSize=1;arcSize=30;strokeWidth=1;fontFamily=consolas;fontSize=20;strokeColor=#0099CC;fontColor=#0099CC;fillColor=none;" parent="HADdj52Uf5GiFGu9Oyp5-1" vertex="1">
          <mxGeometry x="-518.38" y="120" width="40" height="40" as="geometry" />
        </mxCell>
        <mxCell id="-w7Hs3W0pHR4sVc9SzRk-16" value="7" style="rounded=1;whiteSpace=wrap;html=1;absoluteArcSize=1;arcSize=30;strokeWidth=1;fontFamily=consolas;fontSize=20;strokeColor=#0099CC;fontColor=#0099CC;fillColor=none;" parent="HADdj52Uf5GiFGu9Oyp5-1" vertex="1">
          <mxGeometry x="-478.38" y="120" width="40" height="40" as="geometry" />
        </mxCell>
        <mxCell id="-w7Hs3W0pHR4sVc9SzRk-17" value="8" style="rounded=1;whiteSpace=wrap;html=1;absoluteArcSize=1;arcSize=30;strokeWidth=1;fontFamily=consolas;fontSize=20;strokeColor=#0099CC;fontColor=#0099CC;fillColor=none;" parent="HADdj52Uf5GiFGu9Oyp5-1" vertex="1">
          <mxGeometry x="-437.57" y="120" width="40" height="40" as="geometry" />
        </mxCell>
        <mxCell id="-w7Hs3W0pHR4sVc9SzRk-20" value="8" style="rounded=1;whiteSpace=wrap;html=1;absoluteArcSize=1;arcSize=30;strokeWidth=1;fontFamily=consolas;fontSize=20;strokeColor=#0099CC;fontColor=#0099CC;fillColor=none;" parent="HADdj52Uf5GiFGu9Oyp5-1" vertex="1">
          <mxGeometry x="-397.57" y="120" width="40" height="40" as="geometry" />
        </mxCell>
        <mxCell id="-w7Hs3W0pHR4sVc9SzRk-22" value="9" style="rounded=1;whiteSpace=wrap;html=1;absoluteArcSize=1;arcSize=30;strokeWidth=2;fontFamily=consolas;fontSize=20;strokeColor=#99CCFF;fontColor=#FFFFFF;fillColor=#0099CC;" parent="HADdj52Uf5GiFGu9Oyp5-1" vertex="1">
          <mxGeometry x="-355.95" y="120" width="40" height="40" as="geometry" />
        </mxCell>
        <mxCell id="-w7Hs3W0pHR4sVc9SzRk-23" value="right = 11" style="rounded=1;whiteSpace=wrap;html=1;absoluteArcSize=1;arcSize=14;strokeWidth=2;fontFamily=consolas;fontSize=18;strokeColor=none;fontColor=#0099CC;fillColor=none;" parent="HADdj52Uf5GiFGu9Oyp5-1" vertex="1">
          <mxGeometry x="-358.38" y="87.5" width="104.33" height="27.5" as="geometry" />
        </mxCell>
        <mxCell id="-w7Hs3W0pHR4sVc9SzRk-24" value="0" style="rounded=1;whiteSpace=wrap;html=1;absoluteArcSize=1;arcSize=30;strokeWidth=1;fontFamily=consolas;fontSize=20;strokeColor=#cfcfcf;fontColor=#CFCFCF;fillColor=none;" parent="HADdj52Uf5GiFGu9Oyp5-1" vertex="1">
          <mxGeometry x="-800.81" y="280" width="40" height="40" as="geometry" />
        </mxCell>
        <mxCell id="-w7Hs3W0pHR4sVc9SzRk-26" value="1" style="rounded=1;whiteSpace=wrap;html=1;absoluteArcSize=1;arcSize=30;strokeWidth=1;fontFamily=consolas;fontSize=20;strokeColor=#cfcfcf;fontColor=#CFCFCF;fillColor=none;" parent="HADdj52Uf5GiFGu9Oyp5-1" vertex="1">
          <mxGeometry x="-760" y="280" width="40" height="40" as="geometry" />
        </mxCell>
        <mxCell id="-w7Hs3W0pHR4sVc9SzRk-27" value="2" style="rounded=1;whiteSpace=wrap;html=1;absoluteArcSize=1;arcSize=30;strokeWidth=1;fontFamily=consolas;fontSize=20;strokeColor=#cfcfcf;fontColor=#CFCFCF;fillColor=none;" parent="HADdj52Uf5GiFGu9Oyp5-1" vertex="1">
          <mxGeometry x="-720" y="280" width="40" height="40" as="geometry" />
        </mxCell>
        <mxCell id="-w7Hs3W0pHR4sVc9SzRk-28" value="4" style="rounded=1;whiteSpace=wrap;html=1;absoluteArcSize=1;arcSize=30;strokeWidth=1;fontFamily=consolas;fontSize=20;strokeColor=#cfcfcf;fontColor=#CFCFCF;fillColor=none;" parent="HADdj52Uf5GiFGu9Oyp5-1" vertex="1">
          <mxGeometry x="-680" y="280" width="40" height="40" as="geometry" />
        </mxCell>
        <mxCell id="-w7Hs3W0pHR4sVc9SzRk-29" value="4" style="rounded=1;whiteSpace=wrap;html=1;absoluteArcSize=1;arcSize=30;strokeWidth=1;fontFamily=consolas;fontSize=20;strokeColor=#cfcfcf;fontColor=#CFCFCF;fillColor=none;" parent="HADdj52Uf5GiFGu9Oyp5-1" vertex="1">
          <mxGeometry x="-640.0000000000001" y="280" width="40" height="40" as="geometry" />
        </mxCell>
        <mxCell id="-w7Hs3W0pHR4sVc9SzRk-30" value="4" style="rounded=1;whiteSpace=wrap;html=1;absoluteArcSize=1;arcSize=30;strokeWidth=1;fontFamily=consolas;fontSize=20;strokeColor=#cfcfcf;fontColor=#CFCFCF;fillColor=none;" parent="HADdj52Uf5GiFGu9Oyp5-1" vertex="1">
          <mxGeometry x="-600.0000000000001" y="280" width="40" height="40" as="geometry" />
        </mxCell>
        <mxCell id="-w7Hs3W0pHR4sVc9SzRk-31" value="5" style="rounded=1;whiteSpace=wrap;html=1;absoluteArcSize=1;arcSize=30;strokeWidth=2;fontFamily=consolas;fontSize=20;strokeColor=#99CCFF;fontColor=#FFFFFF;fillColor=#0099CC;" parent="HADdj52Uf5GiFGu9Oyp5-1" vertex="1">
          <mxGeometry x="-560" y="280" width="40" height="40" as="geometry" />
        </mxCell>
        <mxCell id="-w7Hs3W0pHR4sVc9SzRk-38" value="5" style="rounded=1;whiteSpace=wrap;html=1;absoluteArcSize=1;arcSize=30;strokeWidth=1;fontFamily=consolas;fontSize=20;strokeColor=#0099CC;fontColor=#0099CC;fillColor=none;" parent="HADdj52Uf5GiFGu9Oyp5-1" vertex="1">
          <mxGeometry x="-520" y="280" width="40" height="40" as="geometry" />
        </mxCell>
        <mxCell id="-w7Hs3W0pHR4sVc9SzRk-40" value="7" style="rounded=1;whiteSpace=wrap;html=1;absoluteArcSize=1;arcSize=30;strokeWidth=2;fontFamily=consolas;fontSize=20;strokeColor=#99CCFF;fontColor=#FFFFFF;fillColor=#0099CC;" parent="HADdj52Uf5GiFGu9Oyp5-1" vertex="1">
          <mxGeometry x="-478.38" y="280" width="40" height="40" as="geometry" />
        </mxCell>
        <mxCell id="-w7Hs3W0pHR4sVc9SzRk-41" value="8" style="rounded=1;whiteSpace=wrap;html=1;absoluteArcSize=1;arcSize=30;strokeWidth=1;fontFamily=consolas;fontSize=20;strokeColor=#0099CC;fontColor=#0099CC;fillColor=none;" parent="HADdj52Uf5GiFGu9Oyp5-1" vertex="1">
          <mxGeometry x="-438.38" y="280" width="40" height="40" as="geometry" />
        </mxCell>
        <mxCell id="-w7Hs3W0pHR4sVc9SzRk-44" value="8" style="rounded=1;whiteSpace=wrap;html=1;absoluteArcSize=1;arcSize=30;strokeWidth=1;fontFamily=consolas;fontSize=20;strokeColor=#0099CC;fontColor=#0099CC;fillColor=none;" parent="HADdj52Uf5GiFGu9Oyp5-1" vertex="1">
          <mxGeometry x="-398.38" y="280" width="40" height="40" as="geometry" />
        </mxCell>
        <mxCell id="-w7Hs3W0pHR4sVc9SzRk-46" value="9" style="rounded=1;whiteSpace=wrap;html=1;absoluteArcSize=1;arcSize=30;strokeWidth=2;fontFamily=consolas;fontSize=20;strokeColor=#99CCFF;fontColor=#FFFFFF;fillColor=#0099CC;" parent="HADdj52Uf5GiFGu9Oyp5-1" vertex="1">
          <mxGeometry x="-357.57" y="280" width="40" height="40" as="geometry" />
        </mxCell>
        <mxCell id="-w7Hs3W0pHR4sVc9SzRk-48" value="0" style="rounded=1;whiteSpace=wrap;html=1;absoluteArcSize=1;arcSize=30;strokeWidth=1;fontFamily=consolas;fontSize=20;strokeColor=#cfcfcf;fontColor=#CFCFCF;fillColor=none;" parent="HADdj52Uf5GiFGu9Oyp5-1" vertex="1">
          <mxGeometry x="-799.9999999999999" y="469.5" width="40" height="40" as="geometry" />
        </mxCell>
        <mxCell id="-w7Hs3W0pHR4sVc9SzRk-50" value="1" style="rounded=1;whiteSpace=wrap;html=1;absoluteArcSize=1;arcSize=30;strokeWidth=1;fontFamily=consolas;fontSize=20;strokeColor=#cfcfcf;fontColor=#CFCFCF;fillColor=none;" parent="HADdj52Uf5GiFGu9Oyp5-1" vertex="1">
          <mxGeometry x="-760" y="469.5" width="40" height="40" as="geometry" />
        </mxCell>
        <mxCell id="-w7Hs3W0pHR4sVc9SzRk-51" value="2" style="rounded=1;whiteSpace=wrap;html=1;absoluteArcSize=1;arcSize=30;strokeWidth=1;fontFamily=consolas;fontSize=20;strokeColor=#cfcfcf;fontColor=#CFCFCF;fillColor=none;" parent="HADdj52Uf5GiFGu9Oyp5-1" vertex="1">
          <mxGeometry x="-720" y="469.5" width="40" height="40" as="geometry" />
        </mxCell>
        <mxCell id="-w7Hs3W0pHR4sVc9SzRk-52" value="4" style="rounded=1;whiteSpace=wrap;html=1;absoluteArcSize=1;arcSize=30;strokeWidth=1;fontFamily=consolas;fontSize=20;strokeColor=#CFCFCF;fontColor=#CFCFCF;fillColor=none;" parent="HADdj52Uf5GiFGu9Oyp5-1" vertex="1">
          <mxGeometry x="-679.9999999999999" y="469.5" width="40" height="40" as="geometry" />
        </mxCell>
        <mxCell id="-w7Hs3W0pHR4sVc9SzRk-53" value="4" style="rounded=1;whiteSpace=wrap;html=1;absoluteArcSize=1;arcSize=30;strokeWidth=1;fontFamily=consolas;fontSize=20;strokeColor=#cfcfcf;fontColor=#CFCFCF;fillColor=none;" parent="HADdj52Uf5GiFGu9Oyp5-1" vertex="1">
          <mxGeometry x="-639.9999999999999" y="469.5" width="40" height="40" as="geometry" />
        </mxCell>
        <mxCell id="-w7Hs3W0pHR4sVc9SzRk-54" value="4" style="rounded=1;whiteSpace=wrap;html=1;absoluteArcSize=1;arcSize=30;strokeWidth=1;fontFamily=consolas;fontSize=20;strokeColor=#cfcfcf;fontColor=#CFCFCF;fillColor=none;" parent="HADdj52Uf5GiFGu9Oyp5-1" vertex="1">
          <mxGeometry x="-600.0000000000001" y="469.5" width="40" height="40" as="geometry" />
        </mxCell>
        <mxCell id="-w7Hs3W0pHR4sVc9SzRk-62" value="5" style="rounded=1;whiteSpace=wrap;html=1;absoluteArcSize=1;arcSize=30;strokeWidth=2;fontFamily=consolas;fontSize=20;strokeColor=#99CCFF;fontColor=#FFFFFF;fillColor=#0099CC;" parent="HADdj52Uf5GiFGu9Oyp5-1" vertex="1">
          <mxGeometry x="-520" y="469.5" width="40" height="40" as="geometry" />
        </mxCell>
        <mxCell id="-w7Hs3W0pHR4sVc9SzRk-64" value="7" style="rounded=1;whiteSpace=wrap;html=1;absoluteArcSize=1;arcSize=30;strokeWidth=1;fontFamily=consolas;fontSize=20;strokeColor=#CFCFCF;fontColor=#CFCFCF;fillColor=none;" parent="HADdj52Uf5GiFGu9Oyp5-1" vertex="1">
          <mxGeometry x="-478.38" y="469.5" width="40" height="40" as="geometry" />
        </mxCell>
        <mxCell id="-w7Hs3W0pHR4sVc9SzRk-65" value="8" style="rounded=1;whiteSpace=wrap;html=1;absoluteArcSize=1;arcSize=30;strokeWidth=1;fontFamily=consolas;fontSize=20;strokeColor=#CFCFCF;fontColor=#CFCFCF;fillColor=none;" parent="HADdj52Uf5GiFGu9Oyp5-1" vertex="1">
          <mxGeometry x="-438.38" y="469" width="40" height="40" as="geometry" />
        </mxCell>
        <mxCell id="-w7Hs3W0pHR4sVc9SzRk-68" value="8" style="rounded=1;whiteSpace=wrap;html=1;absoluteArcSize=1;arcSize=30;strokeWidth=1;fontFamily=consolas;fontSize=20;strokeColor=#CFCFCF;fontColor=#CFCFCF;fillColor=none;" parent="HADdj52Uf5GiFGu9Oyp5-1" vertex="1">
          <mxGeometry x="-398.38" y="469.5" width="40" height="40" as="geometry" />
        </mxCell>
        <mxCell id="-w7Hs3W0pHR4sVc9SzRk-70" value="9" style="rounded=1;whiteSpace=wrap;html=1;absoluteArcSize=1;arcSize=30;strokeWidth=1;fontFamily=consolas;fontSize=20;strokeColor=#CFCFCF;fontColor=#CFCFCF;fillColor=none;" parent="HADdj52Uf5GiFGu9Oyp5-1" vertex="1">
          <mxGeometry x="-358.38" y="469.5" width="40" height="40" as="geometry" />
        </mxCell>
        <mxCell id="-w7Hs3W0pHR4sVc9SzRk-72" value="&lt;div&gt;Giá trị cần tìm k = 5&lt;/div&gt;&lt;div&gt;&lt;br&gt;&lt;/div&gt;mid = (left + right) / 2 = (0 + 11) / 2 = 5" style="rounded=1;whiteSpace=wrap;html=1;absoluteArcSize=1;arcSize=14;strokeWidth=2;fontFamily=Noto Sans;fontSize=18;strokeColor=none;fontColor=#000000;fillColor=none;movable=1;resizable=1;rotatable=1;deletable=1;editable=1;locked=0;connectable=1;align=left;fontSource=https%3A%2F%2Ffonts.googleapis.com%2Fcss%3Ffamily%3DNoto%2BSans;spacing=2;spacingTop=2;verticalAlign=middle;spacingBottom=2;" parent="HADdj52Uf5GiFGu9Oyp5-1" vertex="1">
          <mxGeometry x="-800.81" y="10" width="480.81" height="70" as="geometry" />
        </mxCell>
        <mxCell id="yBz_Y4xfJsr877Oe8l79-0" value="&lt;div&gt;Vì A[mid] = A[5] = 4 &amp;lt; k nên cập nhật mốc trái: left = mid + 1 = 5 + 1 = 6&lt;/div&gt;&lt;div&gt;&lt;span style=&quot;background-color: transparent; color: light-dark(rgb(0, 0, 0), rgb(237, 237, 237));&quot;&gt;&lt;br&gt;&lt;/span&gt;&lt;/div&gt;&lt;div&gt;&lt;span style=&quot;background-color: transparent; color: light-dark(rgb(0, 0, 0), rgb(237, 237, 237));&quot;&gt;mid = (left + right) / 2 = (6 + 11) / 2 = 8&lt;/span&gt;&lt;/div&gt;" style="rounded=1;whiteSpace=wrap;html=1;absoluteArcSize=1;arcSize=14;strokeWidth=2;fontFamily=Noto Sans;fontSize=18;strokeColor=none;fontColor=#000000;fillColor=none;movable=1;resizable=1;rotatable=1;deletable=1;editable=1;locked=0;connectable=1;align=left;fontSource=https%3A%2F%2Ffonts.googleapis.com%2Fcss%3Ffamily%3DNoto%2BSans;spacing=2;spacingTop=0;verticalAlign=middle;spacingBottom=0;" vertex="1" parent="HADdj52Uf5GiFGu9Oyp5-1">
          <mxGeometry x="-800" y="180" width="609.19" height="60" as="geometry" />
        </mxCell>
        <mxCell id="yBz_Y4xfJsr877Oe8l79-1" value="right = 11" style="rounded=1;whiteSpace=wrap;html=1;absoluteArcSize=1;arcSize=14;strokeWidth=2;fontFamily=consolas;fontSize=18;strokeColor=none;fontColor=#0099CC;fillColor=none;" vertex="1" parent="HADdj52Uf5GiFGu9Oyp5-1">
          <mxGeometry x="-357.57" y="250" width="104.33" height="27.5" as="geometry" />
        </mxCell>
        <mxCell id="yBz_Y4xfJsr877Oe8l79-2" value="mid = 8" style="rounded=1;whiteSpace=wrap;html=1;absoluteArcSize=1;arcSize=14;strokeWidth=2;fontFamily=consolas;fontSize=18;strokeColor=none;fontColor=#0099CC;fillColor=none;" vertex="1" parent="HADdj52Uf5GiFGu9Oyp5-1">
          <mxGeometry x="-508.38" y="250" width="100" height="27.5" as="geometry" />
        </mxCell>
        <mxCell id="yBz_Y4xfJsr877Oe8l79-3" value="left = 6" style="rounded=1;whiteSpace=wrap;html=1;absoluteArcSize=1;arcSize=14;strokeWidth=2;fontFamily=consolas;fontSize=18;strokeColor=none;fontColor=#0099CC;fillColor=none;" vertex="1" parent="HADdj52Uf5GiFGu9Oyp5-1">
          <mxGeometry x="-607.0999999999999" y="250" width="87.1" height="27.5" as="geometry" />
        </mxCell>
        <mxCell id="yBz_Y4xfJsr877Oe8l79-4" value="&lt;div&gt;Vì A[mid] = A[8] = 7 &amp;gt; k nên cập nhật mốc phải: right = mid - 1 = 8 - 1 = 7&lt;/div&gt;&lt;span style=&quot;background-color: transparent; color: light-dark(rgb(0, 0, 0), rgb(237, 237, 237));&quot;&gt;&lt;div&gt;&lt;span style=&quot;background-color: transparent; color: light-dark(rgb(0, 0, 0), rgb(237, 237, 237));&quot;&gt;&lt;br&gt;&lt;/span&gt;&lt;/div&gt;mid = (left + right) / 2 = (6 + 7) / 2 = 6&lt;br&gt;&lt;/span&gt;" style="rounded=1;whiteSpace=wrap;html=1;absoluteArcSize=1;arcSize=14;strokeWidth=2;fontFamily=Noto Sans;fontSize=18;strokeColor=none;fontColor=#000000;fillColor=none;movable=1;resizable=1;rotatable=1;deletable=1;editable=1;locked=0;connectable=1;align=left;fontSource=https%3A%2F%2Ffonts.googleapis.com%2Fcss%3Ffamily%3DNoto%2BSans;spacing=2;spacingTop=2;verticalAlign=middle;spacingBottom=2;" vertex="1" parent="HADdj52Uf5GiFGu9Oyp5-1">
          <mxGeometry x="-800" y="340" width="610.81" height="67.5" as="geometry" />
        </mxCell>
        <mxCell id="yBz_Y4xfJsr877Oe8l79-6" value="right = 7" style="rounded=1;whiteSpace=wrap;html=1;absoluteArcSize=1;arcSize=14;strokeWidth=2;fontFamily=consolas;fontSize=18;strokeColor=none;fontColor=#0099CC;fillColor=none;" vertex="1" parent="HADdj52Uf5GiFGu9Oyp5-1">
          <mxGeometry x="-520" y="442" width="104.33" height="27.5" as="geometry" />
        </mxCell>
        <mxCell id="yBz_Y4xfJsr877Oe8l79-8" value="0" style="rounded=1;whiteSpace=wrap;html=1;absoluteArcSize=1;arcSize=30;strokeWidth=1;fontFamily=consolas;fontSize=20;strokeColor=#cfcfcf;fontColor=#CFCFCF;fillColor=none;" vertex="1" parent="HADdj52Uf5GiFGu9Oyp5-1">
          <mxGeometry x="-800.41" y="600" width="40" height="40" as="geometry" />
        </mxCell>
        <mxCell id="yBz_Y4xfJsr877Oe8l79-9" value="1" style="rounded=1;whiteSpace=wrap;html=1;absoluteArcSize=1;arcSize=30;strokeWidth=1;fontFamily=consolas;fontSize=20;strokeColor=#cfcfcf;fontColor=#CFCFCF;fillColor=none;" vertex="1" parent="HADdj52Uf5GiFGu9Oyp5-1">
          <mxGeometry x="-760.4100000000001" y="600" width="40" height="40" as="geometry" />
        </mxCell>
        <mxCell id="yBz_Y4xfJsr877Oe8l79-10" value="2" style="rounded=1;whiteSpace=wrap;html=1;absoluteArcSize=1;arcSize=30;strokeWidth=1;fontFamily=consolas;fontSize=20;strokeColor=#cfcfcf;fontColor=#CFCFCF;fillColor=none;" vertex="1" parent="HADdj52Uf5GiFGu9Oyp5-1">
          <mxGeometry x="-720.4100000000001" y="600" width="40" height="40" as="geometry" />
        </mxCell>
        <mxCell id="yBz_Y4xfJsr877Oe8l79-11" value="4" style="rounded=1;whiteSpace=wrap;html=1;absoluteArcSize=1;arcSize=30;strokeWidth=1;fontFamily=consolas;fontSize=20;strokeColor=#CFCFCF;fontColor=#CFCFCF;fillColor=none;" vertex="1" parent="HADdj52Uf5GiFGu9Oyp5-1">
          <mxGeometry x="-680.41" y="600" width="40" height="40" as="geometry" />
        </mxCell>
        <mxCell id="yBz_Y4xfJsr877Oe8l79-12" value="4" style="rounded=1;whiteSpace=wrap;html=1;absoluteArcSize=1;arcSize=30;strokeWidth=1;fontFamily=consolas;fontSize=20;strokeColor=#cfcfcf;fontColor=#CFCFCF;fillColor=none;" vertex="1" parent="HADdj52Uf5GiFGu9Oyp5-1">
          <mxGeometry x="-640.41" y="600" width="40" height="40" as="geometry" />
        </mxCell>
        <mxCell id="yBz_Y4xfJsr877Oe8l79-13" value="4" style="rounded=1;whiteSpace=wrap;html=1;absoluteArcSize=1;arcSize=30;strokeWidth=1;fontFamily=consolas;fontSize=20;strokeColor=#cfcfcf;fontColor=#CFCFCF;fillColor=none;" vertex="1" parent="HADdj52Uf5GiFGu9Oyp5-1">
          <mxGeometry x="-598.7900000000002" y="600" width="40" height="40" as="geometry" />
        </mxCell>
        <mxCell id="yBz_Y4xfJsr877Oe8l79-14" value="5" style="rounded=1;whiteSpace=wrap;html=1;absoluteArcSize=1;arcSize=30;strokeWidth=2;fontFamily=consolas;fontSize=20;strokeColor=none;fontColor=#FFFFFF;fillColor=#FF748C;" vertex="1" parent="HADdj52Uf5GiFGu9Oyp5-1">
          <mxGeometry x="-560.4100000000001" y="600" width="40" height="40" as="geometry" />
        </mxCell>
        <mxCell id="yBz_Y4xfJsr877Oe8l79-16" value="7" style="rounded=1;whiteSpace=wrap;html=1;absoluteArcSize=1;arcSize=30;strokeWidth=1;fontFamily=consolas;fontSize=20;strokeColor=#CFCFCF;fontColor=#CFCFCF;fillColor=none;" vertex="1" parent="HADdj52Uf5GiFGu9Oyp5-1">
          <mxGeometry x="-478.79" y="600" width="40" height="40" as="geometry" />
        </mxCell>
        <mxCell id="yBz_Y4xfJsr877Oe8l79-17" value="8" style="rounded=1;whiteSpace=wrap;html=1;absoluteArcSize=1;arcSize=30;strokeWidth=1;fontFamily=consolas;fontSize=20;strokeColor=#CFCFCF;fontColor=#CFCFCF;fillColor=none;" vertex="1" parent="HADdj52Uf5GiFGu9Oyp5-1">
          <mxGeometry x="-438.79" y="599.5" width="40" height="40" as="geometry" />
        </mxCell>
        <mxCell id="yBz_Y4xfJsr877Oe8l79-18" value="8" style="rounded=1;whiteSpace=wrap;html=1;absoluteArcSize=1;arcSize=30;strokeWidth=1;fontFamily=consolas;fontSize=20;strokeColor=#CFCFCF;fontColor=#CFCFCF;fillColor=none;" vertex="1" parent="HADdj52Uf5GiFGu9Oyp5-1">
          <mxGeometry x="-398.79" y="600" width="40" height="40" as="geometry" />
        </mxCell>
        <mxCell id="yBz_Y4xfJsr877Oe8l79-19" value="9" style="rounded=1;whiteSpace=wrap;html=1;absoluteArcSize=1;arcSize=30;strokeWidth=1;fontFamily=consolas;fontSize=20;strokeColor=#CFCFCF;fontColor=#CFCFCF;fillColor=none;" vertex="1" parent="HADdj52Uf5GiFGu9Oyp5-1">
          <mxGeometry x="-358.79" y="600" width="40" height="40" as="geometry" />
        </mxCell>
        <mxCell id="yBz_Y4xfJsr877Oe8l79-20" value="mid = 6" style="rounded=1;whiteSpace=wrap;html=1;absoluteArcSize=1;arcSize=14;strokeWidth=2;fontFamily=consolas;fontSize=18;strokeColor=none;fontColor=#FF748C;fillColor=none;" vertex="1" parent="HADdj52Uf5GiFGu9Oyp5-1">
          <mxGeometry x="-584.77" y="572.5" width="87.1" height="27.5" as="geometry" />
        </mxCell>
        <mxCell id="yBz_Y4xfJsr877Oe8l79-22" value="&lt;div&gt;&lt;span style=&quot;background-color: initial; color: light-dark(rgb(0, 0, 0), rgb(237, 237, 237));&quot;&gt;Vì A[mid] = A[6] = 5 = k nên trả về mid = 6.&lt;/span&gt;&lt;/div&gt;" style="rounded=1;whiteSpace=wrap;html=1;absoluteArcSize=1;arcSize=14;strokeWidth=2;fontFamily=Noto Sans;fontSize=18;strokeColor=none;fontColor=#000000;fillColor=none;movable=1;resizable=1;rotatable=1;deletable=1;editable=1;locked=0;connectable=1;align=left;fontSource=https%3A%2F%2Ffonts.googleapis.com%2Fcss%3Ffamily%3DNoto%2BSans;spacing=2;spacingTop=2;verticalAlign=middle;spacingBottom=2;" vertex="1" parent="HADdj52Uf5GiFGu9Oyp5-1">
          <mxGeometry x="-800" y="530" width="480.81" height="42.5" as="geometry" />
        </mxCell>
        <mxCell id="yBz_Y4xfJsr877Oe8l79-23" value="5" style="rounded=1;whiteSpace=wrap;html=1;absoluteArcSize=1;arcSize=30;strokeWidth=1;fontFamily=consolas;fontSize=20;strokeColor=#CFCFCF;fontColor=#CFCFCF;fillColor=none;" vertex="1" parent="HADdj52Uf5GiFGu9Oyp5-1">
          <mxGeometry x="-520.41" y="600" width="40" height="40" as="geometry" />
        </mxCell>
        <mxCell id="yBz_Y4xfJsr877Oe8l79-24" value="left = 6" style="rounded=1;whiteSpace=wrap;html=1;absoluteArcSize=1;arcSize=14;strokeWidth=2;fontFamily=consolas;fontSize=18;strokeColor=none;fontColor=#0099CC;fillColor=none;" vertex="1" parent="HADdj52Uf5GiFGu9Oyp5-1">
          <mxGeometry x="-623.52" y="442" width="104.33" height="27.5" as="geometry" />
        </mxCell>
        <mxCell id="yBz_Y4xfJsr877Oe8l79-25" value="mid = 6" style="rounded=1;whiteSpace=wrap;html=1;absoluteArcSize=1;arcSize=14;strokeWidth=2;fontFamily=consolas;fontSize=18;strokeColor=none;fontColor=#0099CC;fillColor=none;" vertex="1" parent="HADdj52Uf5GiFGu9Oyp5-1">
          <mxGeometry x="-607.1" y="420" width="104.33" height="27.5" as="geometry" />
        </mxCell>
        <mxCell id="yBz_Y4xfJsr877Oe8l79-27" value="5" style="rounded=1;whiteSpace=wrap;html=1;absoluteArcSize=1;arcSize=30;strokeWidth=2;fontFamily=consolas;fontSize=20;strokeColor=#99CCFF;fontColor=#FFFFFF;fillColor=#0099CC;" vertex="1" parent="HADdj52Uf5GiFGu9Oyp5-1">
          <mxGeometry x="-560" y="469.5" width="40" height="40" as="geometry" />
        </mxCell>
      </root>
    </mxGraphModel>
  </diagram>
</mxfile>
